<svg width="187" height="226" viewBox="0 0 187 226" fill="none" xmlns="http://www.w3.org/2000/svg">
<rect opacity="0.8" width="187" height="226" fill="white"/>
<path d="M53.2918 117.26C51.8318 117.26 50.7918 116.38 50.7918 114.92V114.72H48.6718C48.6718 117.56 50.6918 119.2 53.2918 119.2C55.9318 119.2 57.7918 117.26 57.7918 115.04C57.7918 113.9 57.4318 113.18 56.8318 112.54C56.2318 111.9 55.4918 111.5 54.2518 111.04L53.4518 110.74C51.6918 110.08 51.1318 109.58 51.1318 108.58C51.1318 107.44 51.9718 106.74 53.2718 106.74C54.5518 106.74 55.4518 107.44 55.4518 108.72V108.98H57.5718C57.5718 106.42 55.9518 104.8 53.2718 104.8C50.3518 104.8 49.0118 106.82 49.0118 108.62C49.0118 109.62 49.3318 110.34 49.8518 110.98C50.3718 111.62 51.0918 112 52.1518 112.4L53.1118 112.76C54.7318 113.36 55.6718 113.64 55.6718 115.12C55.6718 116.42 54.7518 117.26 53.2918 117.26ZM74.1074 112C74.1074 107.72 71.0074 104.8 66.8474 104.8C62.6874 104.8 59.5874 107.82 59.5874 112C59.5874 116.14 62.6874 119.2 66.8474 119.2C71.0274 119.2 74.1074 116.14 74.1074 112ZM61.6674 112C61.6674 109.1 63.7274 106.78 66.8474 106.78C69.9674 106.78 72.0274 109.1 72.0274 112C72.0274 114.92 69.9674 117.22 66.8474 117.22C63.7274 117.22 61.6674 114.92 61.6674 112ZM76.6555 119H84.3755V117.08H78.6755V105H76.6555V119ZM89.2588 119C91.3988 119 93.4188 118.22 94.6988 116.94C95.9988 115.64 96.7388 114.04 96.7388 112C96.7388 109.96 95.9988 108.36 94.6988 107.06C93.4188 105.78 91.3988 105 89.2588 105H86.5188V119H89.2588ZM89.1188 117.08H88.5388V106.92H89.1188C90.8788 106.92 92.2388 107.46 93.1988 108.4C94.1788 109.34 94.6388 110.46 94.6388 112C94.6388 113.54 94.1788 114.66 93.1988 115.6C92.2388 116.54 90.8788 117.08 89.1188 117.08ZM118.248 112C118.248 107.72 115.148 104.8 110.988 104.8C106.828 104.8 103.728 107.82 103.728 112C103.728 116.14 106.828 119.2 110.988 119.2C115.168 119.2 118.248 116.14 118.248 112ZM105.808 112C105.808 109.1 107.868 106.78 110.988 106.78C114.108 106.78 116.168 109.1 116.168 112C116.168 114.92 114.108 117.22 110.988 117.22C107.868 117.22 105.808 114.92 105.808 112ZM126.216 117.24C124.096 117.24 122.776 115.68 122.776 113.14V105H120.756V113.12C120.756 116.94 122.936 119.2 126.216 119.2C129.496 119.2 131.676 116.94 131.676 113.12V105H129.656V113.14C129.656 115.68 128.336 117.24 126.216 117.24ZM141.917 106.86V105H133.677V106.86H136.797V119H138.817V106.86H141.917Z" fill="#777777"/>
</svg>
